# xmcd CD database file
#
# Track frame offsets:
#	150
#	21187
#	39060
#	63745
#	82322
#	105210
#	127352
#	144425
#	163680
#	182545
#
# Disc length: 2720 seconds
#
# Revision: 0
# Processed by: cddbd v1.5.1PL0 Copyright (c) Steve Scherf et al.
# Submitted via: CDex 1.51
#
DISCID=840a9e0a
DTITLE=ふれあい - 雨上がり
DYEAR=2002
DGENRE=JPop
TTITLE0=雨上がり
TTITLE1=風が強く吹いて
TTITLE2=僕を忘れて
TTITLE3=過ぎていく
TTITLE4=朝
TTITLE5=ドライブ
TTITLE6=夕日が消えた日
TTITLE7=冬到来。
TTITLE8=約束
TTITLE9=グランド
EXTD=YEAR: 2002
EXTT0=
EXTT1=
EXTT2=
EXTT3=
EXTT4=
EXTT5=
EXTT6=
EXTT7=
EXTT8=
EXTT9=
PLAYORDER=
